<svg id="svg" version="1.1" xmlns="http://www.w3.org/2000/svg" xmlns:xlink="http://www.w3.org/1999/xlink" width="400" height="280" viewBox="0, 0, 400,280"><g id="svgg"><path id="path0" d="M291.457 25.498 C 277.707 25.837,276.607 26.012,275.366 28.053 C 274.386 29.664,274.433 30.754,276.598 56.863 C 277.831 71.728,278.648 82.996,278.544 83.691 C 278.010 87.271,276.091 88.039,266.758 88.410 C 259.350 88.703,258.323 88.177,255.476 82.632 C 242.749 57.837,224.336 44.306,200.560 42.277 C 172.527 39.884,149.717 57.015,158.298 74.018 C 162.995 83.324,174.450 87.153,210.084 91.328 C 244.911 95.408,257.969 98.707,270.448 106.577 C 286.908 116.959,293.651 129.950,293.585 151.156 C 293.549 162.897,293.651 162.889,308.683 149.980 C 331.430 130.447,353.038 111.068,362.373 101.826 C 368.910 95.355,368.940 95.822,361.289 85.088 C 359.012 81.894,351.708 71.558,345.058 62.119 C 320.692 27.537,320.452 27.219,317.787 25.995 C 316.143 25.239,308.120 25.088,291.457 25.498 M126.331 34.188 C 118.704 34.580,101.837 35.057,88.655 35.255 L 75.490 35.452 73.950 36.174 C 70.779 37.659,67.493 42.240,52.941 65.461 C 50.553 69.272,46.412 75.671,43.738 79.682 C 36.307 90.830,36.282 90.985,41.149 95.784 C 49.542 104.061,84.798 137.039,113.445 163.411 C 119.671 169.142,122.204 168.482,121.698 161.261 C 120.213 140.102,120.089 140.451,129.378 139.771 C 140.088 138.987,140.267 139.082,144.532 147.817 C 153.022 165.203,162.650 175.658,176.331 182.344 C 196.395 192.149,228.276 191.199,244.534 180.311 C 259.683 170.165,259.464 152.180,244.096 144.456 C 237.637 141.209,231.699 140.028,205.812 136.844 C 184.332 134.202,170.122 131.651,160.224 128.661 C 132.366 120.243,119.086 103.677,119.972 78.447 C 120.493 63.622,126.051 52.133,138.164 40.842 C 145.332 34.161,143.787 33.292,126.331 34.188 M220.028 214.311 C 206.498 216.473,193.731 217.005,180.640 215.951 C 174.063 215.422,172.361 216.569,174.738 219.933 C 175.609 221.166,193.818 238.569,195.849 240.110 C 198.803 242.351,200.667 241.815,205.882 237.225 C 207.654 235.666,213.075 230.954,217.928 226.755 C 228.900 217.262,230.030 216.071,229.535 214.513 C 229.124 213.218,227.133 213.175,220.028 214.311 " stroke="none" fill="#fccb04" fill-rule="evenodd"></path><path id="path1" d="M160.364 0.188 C 158.267 0.355,129.590 1.674,118.908 2.093 C 102.300 2.746,88.967 3.091,70.588 3.345 C 50.086 3.628,49.693 3.695,46.197 7.493 C 43.883 10.006,31.460 27.442,20.868 43.044 C 15.545 50.884,7.377 62.623,3.695 67.724 L 0.000 72.843 0.006 86.072 L 0.011 99.300 5.118 104.176 C 7.926 106.858,11.989 110.773,14.146 112.876 C 16.303 114.980,24.683 123.059,32.768 130.829 C 51.876 149.193,77.597 173.965,93.695 189.507 C 98.010 193.673,118.557 213.460,139.356 233.478 C 160.154 253.496,179.546 272.178,182.450 274.993 L 187.729 280.112 200.476 280.112 L 213.223 280.112 214.552 278.917 C 215.283 278.260,218.075 275.653,220.756 273.124 C 228.956 265.389,229.386 264.987,234.874 259.928 C 252.656 243.536,268.516 229.419,306.443 196.226 C 329.956 175.647,347.004 160.634,352.101 156.018 C 353.564 154.692,357.281 151.347,360.361 148.583 C 369.676 140.222,382.570 128.377,391.527 119.952 L 400.000 111.981 400.000 98.660 L 400.000 85.339 395.843 79.014 C 390.320 70.613,384.930 61.980,374.140 44.258 C 360.276 21.486,355.468 13.898,348.804 4.272 L 345.846 -0.000 253.665 0.049 C 202.966 0.076,160.980 0.138,160.364 0.188 M317.787 25.995 C 320.452 27.219,320.692 27.537,345.058 62.119 C 351.708 71.558,359.012 81.894,361.289 85.088 C 368.940 95.822,368.910 95.355,362.373 101.826 C 353.038 111.068,331.430 130.447,308.683 149.980 C 293.651 162.889,293.549 162.897,293.585 151.156 C 293.651 129.950,286.908 116.959,270.448 106.577 C 257.969 98.707,244.911 95.408,210.084 91.328 C 174.450 87.153,162.995 83.324,158.298 74.018 C 149.717 57.015,172.527 39.884,200.560 42.277 C 224.336 44.306,242.749 57.837,255.476 82.632 C 258.323 88.177,259.350 88.703,266.758 88.410 C 276.091 88.039,278.010 87.271,278.544 83.691 C 278.648 82.996,277.831 71.728,276.598 56.863 C 274.433 30.754,274.386 29.664,275.366 28.053 C 276.607 26.012,277.707 25.837,291.457 25.498 C 308.120 25.088,316.143 25.239,317.787 25.995 M140.723 34.161 C 143.184 35.097,142.549 36.755,138.164 40.842 C 126.051 52.133,120.493 63.622,119.972 78.447 C 119.086 103.677,132.366 120.243,160.224 128.661 C 170.122 131.651,184.332 134.202,205.812 136.844 C 231.699 140.028,237.637 141.209,244.096 144.456 C 259.464 152.180,259.683 170.165,244.534 180.311 C 228.276 191.199,196.395 192.149,176.331 182.344 C 162.650 175.658,153.022 165.203,144.532 147.817 C 140.267 139.082,140.088 138.987,129.378 139.771 C 120.089 140.451,120.213 140.102,121.698 161.261 C 122.204 168.482,119.671 169.142,113.445 163.411 C 84.798 137.039,49.542 104.061,41.149 95.784 C 36.282 90.985,36.307 90.830,43.738 79.682 C 46.412 75.671,50.553 69.272,52.941 65.461 C 67.493 42.240,70.779 37.659,73.950 36.174 L 75.490 35.452 88.655 35.255 C 101.837 35.057,118.704 34.580,126.331 34.188 C 132.458 33.874,139.931 33.860,140.723 34.161 M228.669 213.709 C 231.323 214.718,230.043 216.273,217.928 226.755 C 213.075 230.954,207.654 235.666,205.882 237.225 C 200.667 241.815,198.803 242.351,195.849 240.110 C 193.818 238.569,175.609 221.166,174.738 219.933 C 172.361 216.569,174.063 215.422,180.640 215.951 C 193.731 217.005,206.498 216.473,220.028 214.311 C 225.464 213.442,227.579 213.295,228.669 213.709 " stroke="none" fill="#e40404" fill-rule="evenodd"></path></g></svg>