<?xml version="1.0" encoding="UTF-8"?> <!-- Generator: Adobe Illustrator 25.2.0, SVG Export Plug-In . SVG Version: 6.00 Build 0) --> <svg xmlns="http://www.w3.org/2000/svg" xmlns:xlink="http://www.w3.org/1999/xlink" version="1.1" id="Layer_1" x="0px" y="0px" viewBox="0 0 3600 3600" style="enable-background:new 0 0 3600 3600;" xml:space="preserve"> <style type="text/css"> .st0{fill:#312D2E;} .st1{fill:#0F94D0;} .st2{fill:#BB2B37;} .st3{fill:#E22337;} .st4{fill:#F7CD9B;} .st5{fill:#424441;} .st6{fill:#F7E726;} .st7{fill:#E12337;} .st8{fill:#424340;} .st9{fill:#E12437;} .st10{fill:#145E89;} .st11{fill:#263239;} .st12{fill:#243238;} .st13{fill:#253239;} .st14{fill:#1D3749;} .st15{fill:#8D5477;} .st16{fill:#7F5C7C;} .st17{fill:#7F6377;} .st18{fill:#542728;} .st19{fill:#3C2E2B;} .st20{fill:#453627;} .st21{fill:#5F452F;} .st22{fill:#57452E;} .st23{fill:#634A2D;} .st24{fill:#725736;} .st25{fill:#6E282C;} .st26{fill:#362E2A;} .st27{fill:#372E28;} .st28{fill:#58422A;} .st29{fill:#5A432C;} .st30{fill:#F7E529;} .st31{fill:#F7E628;} .st32{fill:#F2E033;} .st33{fill:#F5D63C;} .st34{fill:#F6D143;} .st35{fill:#010101;} .st36{fill:#C72227;} .st37{fill:#FEEA02;} .st38{fill:#FCE805;} </style> <path class="st0" d="M2184.62,210.64c-2.3,5.81-6.43,9.98-11.1,14.06c-7.48,6.52-14.24,13.86-21.37,20.77 c-6.08,5.89-12.27,11.78-21.67,11.03c-3.25-0.26-3.22,2.25-3.53,3.9c-2.13,11.36-8.4,20.33-17.08,27.27 c-24.04,19.23-41.94,43.38-58.66,68.93c-35.6,54.39-75.04,106.05-114.46,157.71c-39.1,51.25-81.59,99.85-118.76,152.61 c-36.85,52.31-70.09,106.85-101.75,162.41c-1.74,3.06-1.01,5.84-0.85,8.81c2.57,47.8,0.49,95.14-12.88,141.52 c-8.89,30.83-27.89,55.1-49.21,78c-12.69,13.63-26.18,26.44-39.9,38.99c-26.33,24.11-44.22,54.5-62.79,84.3 c-38.89,62.38-68.42,129.42-95.93,197.33c-25.29,62.44-50.66,124.81-85.4,182.77c-40.49,67.54-82.91,133.84-133.79,194.18 c-27.22,32.28-59.31,58.73-98.81,75.1c-30.84,12.77-63.06,17.33-98.26,16.12c6.2-5.37,11.13-9.77,16.2-14.02 c18.56-15.53,38.14-29.89,54.74-47.67c4.35-4.66,8.43-9.53,11.58-15.14c9.05-16.1,6.58-27.46-8.64-37.96 c-8.01-5.52-17.14-8.77-26.18-12.18c-2.49-0.94-4.38-0.17-6.44,1.02c-48.82,28.09-101.18,48.82-151.8,73.2 c-27.76,13.37-54.87,27.86-80.62,44.85c-18.93,12.49-33.74,29.16-45.1,48.23c-27.79,46.64-68.64,79.32-112.25,109.61 c-75.01,52.09-147.58,107.29-213.39,170.88c-34.38,33.23-64.19,70.35-92.58,108.74c-21.05,28.47-42.03,57.1-68.72,80.81 c-10.73,9.53-22.43,17.45-36,22.6c-10.31,3.91-20.51,2.62-30.68,0.43c-7.82-1.68-11.84-5.73-11.84-15.27 c0.02-37.01-0.57-74.03,11.11-109.74c12.47-38.12,31.03-73.4,51.41-107.81c9.83-16.6,21.44-15.55,36.14-6.94 c2.81,1.64,5.25,3.9,8.23,6.15c11.79-29.05,22.26-58.11,32.74-87.18c22.13-61.38,41.98-123.61,67.79-183.62 c12.48-29.01,26.96-56.95,44.31-83.46c30.72-46.93,72.23-78.72,126.81-92.91c22.85-5.94,45.62-12.19,68.51-17.96 c4.07-1.03,6.59-2.7,8.69-6.34c9.61-16.71,19.52-33.25,29.8-50.65c-18.55,0.12-36.28-0.68-53.57-4.76 c-49.31-11.62-91.47-34.92-118.84-78.94c-22.98-36.97-24.38-75.78-3.19-114.43c6.72-12.26,14.65-23.84,21.77-35.89 c2.7-4.57,5.12-9.42,6.9-14.41c6.45-18.02-1.48-30.14-20.42-32.01c-18.94-1.88-36.84,2.97-54.7,8.13c-4.63,1.34-9.04,3.5-13.7,4.7 c-22.48,5.82-34.91,22.68-46.94,40.81c-25.62,38.61-51.29,77.19-74.72,117.19c-3.2,5.47-5,5.21-9.23,1.27 c-12.54-11.68-24.54-23.74-33.06-38.81c-16.39-28.99-13.45-58.13-0.2-87.09c14.82-32.39,35.29-61.28,56.72-89.51 c43.11-56.79,93.05-107.49,142.18-158.88c47.22-49.4,95.26-98.01,144.17-145.74c90.16-87.99,182.69-173.37,279.75-253.75 c13.72-11.36,26.84-23.48,41.83-33.24c3.63-2.37,5.01-6.24,6.7-9.96c13.25-29.13,33.25-51.01,65.03-60.08 c7.35-2.1,14.82-3.69,22.49-3.86c3.21-0.07,5.82-1.2,8.57-2.7c18.73-10.24,37.43-20.59,58.64-25.05 c17.95-3.78,35.46-2.37,52.38,4.69c4.45,1.86,8.22,2.11,12.94,0.35c14.22-5.29,28.76-6.66,42.98,0.16c3.11,1.49,4.5,0.94,5.98-1.8 c12.31-22.85,25.34-45.65,26.58-72.3c0.82-17.75-0.66-35.62-1.25-53.43c-0.83-24.99-1.37-49.96,0.98-74.91 c1.71-18.15,13.16-28.7,28.11-36.74c15.05-8.1,31.71-13.24,45.48-23.6c10.03-7.55,19.7-15.29,31.43-20.33 c11.73-5.04,23.95-6.66,36.14-5.2c17.25,2.06,28.59,31.73,16.32,42.27c-0.77,0.66-1.46,1.43-2.11,2.22 c-3.45,4.2-4.07,7.55,1.97,10.31c5.6,2.56,9.91,7.05,13.93,11.7c3.79,4.37,6.76,8.9,4,15.1c-1.56,3.49,0.72,6.03,3.14,7.86 c4.04,3.06,8.4,5.72,12.68,8.47c8.83,5.69,9.73,8.7,3.39,17.03c-3.36,4.41-3.44,6.88,1.11,10.39c9.1,7.01,15.7,15.83,17.56,27.65 c0.51,3.26,2.43,5.96,5.4,8c13.23,9.05,16.96,21.86,11.29,37.28c-5.14,13.96-16.37,21.88-28.8,28.03 c-5.69,2.81-6.87,5.25-5.41,11.44c2.9,12.35,4.63,24.98,6.51,37.55c0.59,3.91,2.21,5.66,6.08,6.41c23.95,4.67,47.95,9.3,69.28,22.14 c2.68,1.62,4.22,0.18,6.09-1.16c66.17-47.21,137.78-84.59,211.99-117.24c4.48-1.97,6.26-4.16,6.87-9.3 c3.24-27.58,8.2-54.82,20.39-80.16c15.7-32.63,42.18-54.52,72.82-71.84c38.37-21.69,75.71-44.89,112.4-69.36 c20-13.34,31.09-30.86,37.67-52.82c5.83-19.47,8.83-39.63,14.92-59.05c4.31-13.75,10.95-21.13,27.18-22.51 c13.41-1.14,26.59-3.39,39.95-1.15c19.69,3.31,37.74,10.03,49.22,27.86c7.42,11.51,13.94,23.54,18.61,36.49 C2184.62,208.6,2184.62,209.62,2184.62,210.64z"></path> <path class="st1" d="M1167.9,760.27c13.03,9.65,24.82,20.69,36.12,32.28c2.69,2.76,3.47,5.03,1.53,9.23 c-8.71,18.8-21.19,35.05-33.53,51.39c-30.09,39.83-63.68,76.79-95.15,115.48c-2.62,3.22-5.03,2.49-8.01,1.97 c-17.53-3.08-35.04-6.26-52.6-9.14c-10.76-1.76-21.12,0.45-32.26,6.79c6.21,0,10.84,0.31,15.42-0.06 c17.63-1.42,34.1,4.61,50.98,7.87c25.13,4.85,50.09,3.6,75.15-0.41c17.07-2.73,33.6-7.25,49.91-12.88c4.6-1.59,7.55-0.62,7.53,5.59 c-0.05,18.59,4.48,35.65,18.23,49.29c2.77,2.74,5.95,4.7,9.24,6.5c4.11,2.25,3.35,4.24,0.28,6.65 c-28.99,22.79-58.22,45.17-90.24,63.76c-16.85,9.78-33.68,19.46-51.53,27.24c-23,10.02-46.4,19.45-71.16,23.63 c-17.62,2.98-36.11,5.29-52.4-6.3c-12.82-9.12-16.83-22.84-19.43-37.28c-5.58-31.06-0.82-61.9,2.31-92.74 c1.92-18.97,4.19-37.94,7.37-56.73c3.65-21.52,8.22-42.91,12.9-64.24c4.5-20.5,9.24-40.97,14.62-61.26 c5.91-22.28,12.54-44.36,19.11-66.46c5.91-19.88,11.33-39.93,19.92-58.94c8.54-18.91,20.32-35.22,38.27-45.89 c10.43-6.2,22.08-10.49,34.42-11.45c26.59-2.06,52.49,1.82,78.47,7.76c23.42,5.35,46.42,14.32,70.95,13.2 c16.48-0.75,32.87-3.32,49.33-4.75c51.39-4.46,102.84-5.8,154.35-2.43c26.65,1.74,53.37,3.49,79.69,7.91 c30.61,5.14,61.89,7.69,90.79,20.74c14.16,6.4,26.68,15.22,38.82,24.61c21.61,16.73,39.79,36.5,52.89,60.79 c7.1,13.16,10.98,27.33,13.51,41.75c6,34.15,4.48,68.61,1.7,102.94c-2.36,29.19-7.45,58.03-20.67,84.51 c-13.25,26.55-33.51,47.95-54.96,67.85c-50.15,46.52-96.83,96.49-145.41,144.57c-5.56,5.5-11.06,11.08-16.4,16.8 c-2.42,2.59-4.94,2.38-7.57,1c-28.3-14.89-56.47-30.04-84.88-44.71c-28.05-14.48-56.33-28.53-84.54-42.72 c-15.41-7.75-30.82-15.5-46.31-23.08c-26.74-13.08-53.53-26.08-80.36-38.99c-3.41-1.64-3.81-3.48-0.83-5.44 c27.28-17.92,51.65-39.66,77.82-59.05c3.73-2.76,7.5-2.82,11.57-2.14c27.16,4.55,50.38-4.93,71.83-20.34 c6.04-4.34,7.36-11.43,8.36-18.17c2.63-17.74,3.27-35.56-0.02-53.3c-1.21-6.5-3.2-13.21-7.38-18.19 c-6.18-7.36-7.79-18.52-18.4-22.24c-2.45-0.86-1.2-3.57-1.57-5.45c-1.38-7.14-1.68-14.7-7.59-20.14c-7.97-7.33-17.45-6.1-26.69-4.12 c-5.87,1.26-10.3,2.07-15.73-2.66c-6.29-5.48-15.15-5.11-23.41-4.68c-2.2,0.12-3.23,1.2-3.64,3.12c-3.03,14-14.06,21.62-24.06,29.97 c-19.15,15.99-21.81,28.64-10.35,50.59c5.72,10.95,5.55,11.05-4.75,17.62c-16.21,10.34-34.98,13.15-52.99,18.01 c-13.74,3.71-28.06,4.61-42.25,5.72c-1.87,0.15-4.4,1.38-5.55-0.88c-1.16-2.27,1.27-3.55,2.53-5.04 c23.28-27.6,46.72-55.07,68.7-83.74c17.95-23.41,35.11-47.37,50.73-72.4c2.85-4.56,5.16-4.2,8.19-1.01 c4.84,5.11,9.52,10.39,15.15,16.57c2.43-6,1.7-9.68-0.73-13.58c-9.19-14.73-23.1-24.55-36.37-34.93 c-8.71-6.82-18.19-12.66-27.33-18.93c-5.41-1.53-9.88-4.79-12.55-6.67C1160.1,752.07,1164.25,755.88,1167.9,760.27z"></path> <path class="st2" d="M472.93,1351.21c140.09-194.18,301.53-368.82,481.65-528.63c0.04,9.23-3.22,16.1-4.91,23.17 c-4.14,17.34-7.98,34.72-11.84,52.12c-2.79,12.55-4.86,25.24-7.86,37.75c-1.53,6.36-2.52,12.99-3.28,19.46 c-3.47,29.47-8.73,58.69-10.25,88.46c-0.98,19.16-1.44,38.15,0.6,57.16c2.04,19.01,9.66,35.52,25.09,47.19 c4.97,3.76,11.89,6.09,18.16,6.73c13.86,1.41,27.77,1.84,41.74-1.07c21.4-4.46,41.54-12.59,61.88-20.04 c11.69-4.29,22.34-11.35,33.87-16.16c12.8-5.35,23.09-15.09,36.97-19.86c-1.26,6.37-5.87,10.45-9.06,15.05 c-14.84,21.46-29.78,42.68-47.92,61.83c-16.45,17.37-30.27,37.33-44.05,57.06c-8.31,11.9-16.84,23.48-23.55,36.6 c-4.95,9.69-16.5,14.5-24.79,21.88c-26.45,23.55-51.95,47.97-74.96,74.95c-10.9,12.79-22.87,24.69-33.43,37.74 c-15.66,19.33-30.74,39.15-45.62,59.09c-14.58,19.54-28.89,39.29-42.77,59.33c-10.71,15.46-20.65,31.46-30.82,47.3 c-9.36,14.58-18.66,29.21-27.78,43.95c-1.38,2.22-3.09,2.38-5.08,2.46c-27.02,1.08-53.18-2.25-78.98-11.28 c-30.05-10.52-55.86-27.1-76.61-50.66c-14.73-16.72-24.51-36.61-27.57-59.42c-4.09-30.5,6.83-56.06,23.41-80.61 c10.19-15.09,21.06-30.4,21.06-50.02c0-11.57-10.56-24.81-21.91-26.5c-15.7-2.33-31.15-1.46-46.83,2.09 C502.48,1341.74,488.07,1346.45,472.93,1351.21z"></path> <path class="st1" d="M1180.03,1431.38c6.85,26.32-12,40.47-26.74,56.62c-38.84,42.53-79.85,82.89-124.1,119.71 c-32.02,26.64-66.25,50.39-101.32,73c-37.1,23.91-75.62,45.47-112.6,69.51c-12.42,8.07-22.76,19.21-35.68,26.94 c-11.61,6.94-23.5,12.88-36.74,15.95c-2.15,0.5-4.1,1.85-6.93,3.17c8.12,4.16,5.35,7.54,0.77,12.36 c-14.22,14.96-27.83,30.49-41.39,45.48c-2.04-0.17-2.12-1.17-2.16-2.2c-0.41-11.18-0.4-11.11-11.11-8.97 c-12.5,2.5-24.59,6.31-36.26,11.36c-5,2.17-6.14,0.61-6.09-4.21c0.17-16.84-0.11-33.69,0.34-50.51c0.14-5.35-1.18-7.12-6.62-7.09 c-30.31,0.16-60.51,1.66-90.65,5.16c-16.86,1.96-33.63,4.45-51.61,7.55c4.17-9.14,9.78-15.73,14.94-22.61 c20.02-26.68,44-48.55,75.03-61.89c20.3-8.73,41.33-15.19,62.78-20.41c16.42-3.99,32.78-8.19,49.17-12.3 c1.51-0.38,2.47-1.07,3.35-2.62c23.66-41.8,48.8-82.74,74.9-123.01c17.29-26.69,35.37-52.96,54.22-78.67 c23.05-31.44,46.87-62.22,72.07-91.96c35.19-41.51,73.42-79.93,115.87-114.05c5.29-4.26,11.62-5.89,18.36-5.87 c35.77,0.1,66.69,13.14,93.51,36.1c27.04,23.14,41.92,53.41,49.27,87.77c0.9,4.19,1.93,8.35,2.89,12.53 C1181.35,1415.6,1178.14,1423.77,1180.03,1431.38z"></path> <path class="st1" d="M1713.83,815.58c-4.39-6.7-3.93-14.11-5.88-20.79c-11.03-37.61-34.94-65.73-65-89.35 c-13.11-10.31-26.63-20.11-42.14-26.69c-2.5-1.06-3.74-2.61-4.05-5.62c-1.33-13.06-6.49-24.47-16.28-33.4 c-4.34-3.96-2.37-6.05,1.33-8.77c22.52-16.55,46.41-30.97,70.42-45.16c41.7-24.66,84.86-46.61,129.54-65.21 c13.11-5.46,18.65-12.39,19.47-26.01c1.12-18.8,5.73-37.06,11.89-54.93c11.26-32.68,32.95-56.61,61.51-75.11 c23.36-15.13,48.24-27.63,71.95-42.14c20.71-12.67,40.5-26.71,60.24-40.81c6.79-4.85,7.72-4.6,9.48,3.32 c4.25,19.18,15.43,33.37,32.47,42.73c6.02,3.3,7.52,5.8,3.32,12.19c-28.2,42.91-58.15,84.58-89.11,125.52 c-20.44,27.03-41.64,53.47-62.11,80.48c-25.32,33.42-53.18,64.82-77.69,98.9c-24.34,33.84-47.65,68.36-69.51,103.83 c-12.89,20.92-25.05,42.29-37.55,63.45C1715.51,813.06,1714.81,814.06,1713.83,815.58z"></path> <path class="st1" d="M1284.4,1452.8c15.06-2.02,29.1-7.4,42.86-13.46c2.88-1.27,5.55-1.92,9.76-2.42 c-8.76,14.24-17.07,27.68-25.32,41.15c-21.58,35.26-43.07,70.57-69.86,102.29c-23.08,27.33-49.28,51.36-77.49,73.21 c-22.89,17.73-46.92,33.86-71.56,49.06c-41.63,25.69-86.28,45.34-130.68,65.56c-23.9,10.89-47.71,22.02-70.88,34.57 c-19.55,10.58-38.71,21.56-56.64,34.69c-17.99,13.18-30.75,30.95-43.12,49.05c-4.08,5.97-7.8,12.18-13.85,18.27 c0.21-2.23,0.11-3.2,0.42-4.03c0.81-2.14,2.43-4.67,0.76-6.43c-2.09-2.2-4.76-0.15-6.99,0.8c-7.76,3.32-15.99,5.06-24.12,7.02 c-8.19,1.97-9.9,0.35-7.85-7.71c2.04-8.01,2.45-16.05,2.67-24.23c0.12-4.36-1.28-5.54-5.43-6.18c-12.09-1.87-24.29-0.68-38.11-1.65 c10.44-11.63,19.98-22.24,29.51-32.86c2.86-3.19,5.79-6.31,8.54-9.59c11.11-13.28,22.81-25.34,39.76-31.85 c10.48-4.02,19.72-11.29,28.2-18.94c22.88-20.67,50.74-33.7,76.57-49.8c37.92-23.63,76-46.99,111.9-73.63 c24.92-18.5,48.75-38.33,71.95-59.03c25.21-22.49,49.25-46.09,72.66-70.35c14.59-15.12,28.53-30.86,42.52-46.54 c3.63-4.07,7.42-6.17,13.02-6.46c21.56-1.12,43.14-2.08,64.59-4.73c4.79-0.59,8.96-3.65,13.96-3.25 C1275.94,1453.03,1280.36,1453.86,1284.4,1452.8z"></path> <path class="st3" d="M246.11,2329.54c-1.81-21.97,3.15-46.9,9.83-71.41c4.35-15.95,11.08-31.2,18.54-46 c8.83-17.52,16.84-35.49,27.09-52.28c2.47-4.05,4.93-8.16,7.84-11.9c4.94-6.33,14.86-5.88,23,0.96c2.88,2.42,5.63,5.08,8.02,7.98 c5.85,7.06,6.49,7.22,9.54-1.4c10.07-28.53,21.88-56.4,31.42-85.14c6.95-20.94,15.16-41.46,22.57-62.25 c8.98-25.21,17.28-50.66,26.67-75.71c7.69-20.52,16.49-40.64,24.92-60.88c7.02-16.86,15.99-32.77,24.21-49.04 c2.68-5.31,6.72-7.7,12.9-9c16.88-3.56,33.96-5.97,51.01-7.77c27.59-2.92,55.33-4.95,83.16-4.3c4.99,0.12,5.24,3.11,4.87,6.62 c-1.9,18.33-0.17,36.63,0.16,54.95c0.11,6.31,1.15,7.48,7.34,4.07c12.79-7.05,26.84-11.31,40.71-15.81c1.16-0.38,2.74-0.58,3.5,0.69 c1.14,1.89-0.03,3.81-0.22,5.76c-1.55,15.6-13.54,24.2-22.93,34.37c-21.04,22.77-42.47,45.17-64.55,66.97 c-16.11,15.91-33.19,30.74-49.33,46.6c-25.69,25.26-49.49,52.23-73.43,79.08c-25.29,28.36-51.41,56.1-75.01,85.82 c-23.86,30.05-46.27,61.37-67.21,93.61c-15.97,24.58-31.36,49.53-45.66,75.14c-4.99,8.94-9.72,18.01-15.8,26.36 c-5.2,7.13-11.99,6.56-19.11,5.43c-4.02-0.64-4.02-3.98-4.02-7.15C246.12,2353.69,246.11,2343.49,246.11,2329.54z"></path> <path class="st3" d="M319.82,1434.93c1.86-21.26,8.97-40.83,19.46-59.29c17.79-31.28,38.66-60.42,61.34-88.31 c22.37-27.51,45.87-54,70.1-79.89c29.23-31.23,59.5-61.44,88.91-92.48c41.36-43.64,84.32-85.65,127.16-127.8 c18.87-18.56,37.99-36.89,57.33-54.95c29.02-27.11,58.14-54.11,87.6-80.75c24.27-21.94,48.95-43.45,73.71-64.84 c18.99-16.4,38.36-32.35,57.63-48.42c5.36-4.47,10.92-8.7,16.49-12.9c1.05-0.79,2.62-2.31,3.91-0.62c0.61,0.8,0.52,2.53,0.14,3.62 c-8.09,23.27-14.87,46.93-21.12,70.75c-1.22,4.66-4.05,8.6-7.77,11.95c-18.17,16.36-36.07,33.02-54.33,49.27 c-28.44,25.32-55.06,52.53-82.44,78.95c-42.16,40.67-82.68,82.91-122.4,125.94c-29.01,31.44-57.63,63.23-85.17,95.97 c-28.93,34.4-57.97,68.74-85.07,104.64c-17.75,23.52-36.36,46.41-53.38,70.44c-21.89,30.88-43.83,61.73-64.27,93.64 c-13.17,20.56-26.65,40.92-39.43,61.73c-0.52,0.85-1.47,1.44-1.95,2.3c-7.33,13.13-7.32,13.14-17.81,2.45 c-10.13-10.33-19.1-21.77-24-35.31C321.53,1452.92,318.92,1444.09,319.82,1434.93z"></path> <path class="st2" d="M1064.49,1836.23c11.19-9.34,22.63-18.38,33.49-28.08c13.74-12.27,27.43-24.58,34.4-42.57 c4.55-11.74,1.91-26.64-7.19-35.14c-6.98-6.52-15.28-10.7-23.89-14.33c-2.45-1.03-4.36-2.44-6.61-4.62 c9.31-6,18.54-11.85,27.67-17.83c25-16.37,49.1-33.89,71.75-53.47c21.87-18.91,42.34-39.14,60.32-61.73 c14.32-17.99,27.29-36.96,39.73-56.37c14.62-22.81,28.24-46.22,43.04-68.9c26.92-41.24,54.4-82.14,76.45-126.34 c11.83-23.72,28.4-44.44,42.6-66.66c16.63-26.02,40.49-45.27,61.13-67.53c11.49-12.4,23.5-24.32,35.36-36.55 c1.56,2.08,1.04,3.56-0.03,5.15c-19.74,29.17-36.05,60.24-51.9,91.65c-18.51,36.67-34.68,74.37-50.42,112.22 c-11.5,27.66-22.64,55.49-34.26,83.1c-13.77,32.73-29.97,64.3-46.99,95.46c-11.66,21.35-25.02,41.68-37.33,62.64 c-11.22,19.12-24.75,36.89-37.45,55.13c-13.66,19.61-26.87,39.59-41.49,58.48c-21.15,27.34-43.35,53.76-71.84,74.22 c-23.13,16.61-47.66,30.15-75.38,36.82c-13.26,3.18-26.75,6.19-40.45,7.17C1064.96,1837.52,1064.73,1836.88,1064.49,1836.23z"></path> <path class="st4" d="M1476.25,531.85c-11.48,1.73-20.85,4.84-30.65,5.35c-17.3,0.91-34.59,2.11-51.9,2.87 c-16.95,0.74-29.32-6.61-34.93-22.8c-3.49-10.07-9.17-13.87-19.93-14.47c-22.01-1.24-36.38-25.52-28.38-46.05 c2.88-7.4,10.59-9.91,17.49-5.46c2.97,1.91,5.54,4.43,8.34,6.6c2.55,1.98,5.17,3.87,8.92,6.65c-1.77-13.95,0.03-26.25,1.29-38.67 c0.87-8.58-2.95-17.08-9.16-23.73c-2.53-2.71-3.37-4.89-0.14-7.59c14.78-12.34,31.19-21.04,50.62-23.43 c2.28-0.28,3.68-1.29,4.11,1.91c1.41,10.55,3.96,12.75,15.39,13.66c1.26,0.1,2.53,0.01,6.18,0.01c-2.86,2.18-4.39,3.17-5.69,4.39 c-1.41,1.32-2.6,2.86-4.69,5.19c7.45-1.07,13.33-2.68,18.75-6.07c4.44-2.77,5.21-5.32,0.26-8.16c-3.64-2.09-7.36-4.05-11.03-6.1 c-1.31-0.74-3.02-1.58-2.37-3.35c0.65-1.78,2.62-1.35,3.96-0.98c15.78,4.44,31.03,9.89,42.3,22.76c2.58,2.95,4.82,5.62,2.91,10.13 c-1.58,3.73-0.32,7.42,2.35,10.65c2.31,2.79,5.02,5.02,7.9,7.15c3.86,2.86,10.06,3.71,11.51,8.27c1.45,4.53-4,7.69-6.26,11.53 c-1.59,2.72-1.46,4.58,0.88,6.6c3.27,2.83,6.4,5.83,9.64,8.71c5.88,5.21,10.02,11.46,11.56,19.26c1.43,7.21,5.22,12.3,11.97,15.73 c7.59,3.85,9.57,18.75,4.53,29.7c-4.26,9.25-11.99,14.92-20.36,20.05c-5.13,3.15-13.26,4.16-14.94,9.36 c-1.63,5.04,1.78,11.71,2.99,17.67c5.53,27.26,8.37,54.86,10.82,82.53c0.47,5.31-2.34,4.49-5.45,4.2 c-47.77-4.41-95.67-5.67-143.61-5.48c-12.22,0.05-24.46,0.72-36.66,1.48c-5.31,0.33-9.02-0.99-12.33-5.48 c-6.8-9.24-14.43-17.85-23.2-25.31c-2.45-2.08-3.46-3.41-1.5-6.77c12.3-21.17,23.03-43.05,27.88-67.33c0.52-2.6,2.25-4.47,3.96-6.4 c8.76-9.9,15.48-20.84,17.17-34.29c0.39-3.11,1.1-4.77,4.73-2.43c4.29,2.77,9.38,5.02,14.33,4.77c9.02-0.46,12.25,4.85,15.24,11.81 c8.86,20.62,21.74,29.54,49.67,27.82c13.48-0.83,26.99-1.32,40.46-2.29C1453.62,545.14,1464.71,540.48,1476.25,531.85z"></path> <path class="st5" d="M1187.9,1436.68c-1.54-23.5-4.3-46.61-12.74-69.03c-4.49-11.92-9.05-23.69-16.96-33.39 c-7.77-9.52-4.76-18.13-1.51-27.66c7.43-21.83,16.24-43.15,27.18-63.35c6.96-12.86,14.63-25.4,21.63-38.3 c3.49-6.43,9.02-2.99,12.42-0.4c4.89,3.73,7.07,1.68,9.56-2.16c5.66-8.72,11.38-17.41,15.69-26.92c0.42-0.93,0.62-2.14,1.33-2.72 c9.12-7.38,13.14-18.09,18.41-27.98c1.04-1.96,3-4.07,4.71-2.67c4.6,3.76,10.44,5.2,15.04,8.79c2.65,2.07,1.71,4.32,0.24,6.71 c-11.54,18.73-22.95,37.54-34.57,56.23c-2.38,3.83-0.68,5.21,2.55,6.85c23.23,11.82,46.3,23.95,69.6,35.61 c15.29,7.66,30.33,15.76,45.37,23.85c13.25,7.12,26.9,13.69,40.09,21.08c2.19,1.23,4.06,3.03,6.28,4.2 c2.04,1.07,2.58,2.32,1.49,4.26c-13.07,23.36-24.87,47.43-39.3,70.04c-5.03,7.88-9.71,16.03-13.83,24.41 c-6.79,13.84-19.34,20.22-32.27,26.33c-14.97,7.07-30.71,12.39-46.81,15.46c-16.57,3.16-33.31,5.91-50.34,6.94 c-11.07,0.67-22.31,0.1-33.34,2.45c-7.98,1.7-9.85-0.29-9.91-8.68C1187.88,1443.31,1187.9,1440,1187.9,1436.68z"></path> <path class="st3" d="M765.58,1907.56c-6.85,14.03-10.58,28.07-23.33,38.02c-17.89,13.96-35.43,28.36-54.11,41.26 c-25.55,17.65-51.09,35.34-75.71,54.27c-13.26,10.2-26.16,20.95-39.3,31.27c-14.98,11.77-29.78,23.73-44.56,35.75 c-28.4,23.08-54.74,48.38-79.97,74.83c-27.45,28.78-51.46,60.34-74.86,92.46c-17.76,24.38-36.79,47.9-58.05,69.33 c-8.9,8.97-19.09,17.06-30.75,22.68c-1.25,0.6-2.86,0.48-5.24,0.83c10.11-22.79,22.98-42.97,35.35-63.4 c23.86-39.43,50.38-77.06,77.89-114.01c13.74-18.46,28.91-35.67,44.2-52.81c22.11-24.78,44.09-49.68,66.11-74.54 c25.68-29.01,53.14-56.24,81.6-82.52c27.93-25.77,54.12-53.31,79.97-81.15c6.5-7,13.16-13.89,19.27-21.22 c6.23-7.48,13.69-10.84,23.38-9.39c3.75,0.56,7.62,0.32,11.38,0.88c15.55,2.31,17.17,4.68,13.51,20.38 c-1.16,4.98-1.81,10.01-2.77,14.99c-1.05,5.44,0.01,6.8,5.87,6.8C745.28,1912.28,754.19,1908.12,765.58,1907.56z"></path> <path class="st4" d="M1250.06,871.98c-10.46,6.63-20.99,6.39-31.73,7.35c7.52-6.8,13.38-14.53,17.31-23.85 c1.44-3.41,5.44-0.7,8.28-0.46c3.92,0.33,8.27,1.26,10.07,4.63c3.09,5.77,6.97,5.42,11.85,3.4c1.16-0.48,2.47-0.56,3.71-0.86 c17.19-4.15,27.75-3.58,27.54,18.3c-0.03,3.44,1.09,7.04,4.55,9.22c10.5,6.61,16.65,16.93,20.59,27.96 c7.71,21.56,5.17,43.65,0.71,65.57c-0.5,2.44-1.84,4.04-3.8,5.43c-18.54,13.24-38.45,22.08-61.93,18.65 c-10.79-1.58-20.28,0.12-27.66,8.81c-4.78,5.63-9.59,4.61-15.28,1.02c-15.81-9.96-20.75-25.45-23.15-42.67 c-1.61-11.54,0.1-21.09,11.74-26.59c6.11-2.88,6.36-7.09,3.3-12.74c-3.98-7.35-7.86-14.82-9.57-23.18 c-2.6-12.71,4.23-23.03,16.9-24.9c4.77-0.7,9.64-0.68,14.45-1.19C1236.89,884.95,1244.23,881.23,1250.06,871.98z"></path> <path class="st4" d="M2114.7,237.9c-1.4,4.09-0.49,7.92,2.82,10.19c4.88,3.33,4.17,7.15,2.95,11.9 c-2.54,9.83-8.26,17.42-15.86,23.67c-14.41,11.85-27.48,25.01-39.09,39.59c-2.89,3.62-5.19,4.36-9.48,2.03 c-19.05-10.34-31.88-25.05-34.69-47.21c-0.44-3.5-1.09-7.04,1.11-10.34c15.57-23.37,21.8-50.08,27.66-76.98 c2.37-10.88,4.6-21.88,9.96-31.88c2.21-4.12,5.25-7.45,10.06-6.84c6.08,0.77,11.33-1.85,16.97-2.7c15.99-2.41,31.08,0.13,46.75,5.37 c22.86,7.65,31.06,26.31,40.29,44.89c4.75,9.56,3.7,13.19-4.52,19.68c-7.85,6.19-14.51,13.59-21.19,20.91 C2135.93,253.84,2126.18,251.47,2114.7,237.9z"></path> <path class="st6" d="M1449.65,1237.03c-0.88,1.34-1.75,2.59-2.55,3.89c-10.2,16.43-20.59,32.75-30.45,49.38 c-2.68,4.52-4.88,4.39-8.95,2.24c-27.58-14.63-55.19-29.19-82.93-43.51c-20.21-10.44-40.52-20.72-61.05-30.52 c-5.65-2.7-7.51-4.06-3.38-10.19c10.6-15.74,20.39-32.02,30.29-48.21c2.33-3.82,4.01-5.26,8.81-2.84 c48.36,24.37,96.55,49.05,144.27,74.64C1445.98,1233.11,1449.23,1233.48,1449.65,1237.03z"></path> <path class="st6" d="M1155.29,1086.77c3.39,1.58,6.65,3.02,9.85,4.58c29.26,14.3,58.49,28.66,87.78,42.88 c3.6,1.75,5.14,2.88,2.41,7.15c-10.64,16.62-20.93,33.48-31.09,50.4c-2.34,3.9-4.3,4.45-8.41,2.42 c-32.38-16.05-64.84-31.94-97.41-47.61c-4.09-1.97-3.84-3.5-1.67-6.6c11.68-16.7,23.23-33.48,34.86-50.21 C1152.57,1088.43,1153.01,1086.27,1155.29,1086.77z"></path> <path class="st7" d="M1163.34,1177.6c3.59,1.82,6.76,3.32,9.83,5.01c7.69,4.23,16.01,7.14,23.55,11.79 c3.15,1.94,3.27,3.53,1.89,5.89c-11.17,19.05-21.89,38.31-31.6,58.18c-7.72,15.81-14.82,31.81-20.33,48.49 c-1.66,5.03-2.49,6.89-7.22,2.17c-14.63-14.61-31.86-25.6-50.62-34.14c-3.09-1.4-2.91-2.25-1.49-4.87 c9.71-17.97,21.97-34.23,34.4-50.28c10.82-13.97,22.67-27.19,36.68-38.23C1160.15,1180.25,1161.82,1178.84,1163.34,1177.6z"></path> <path class="st8" d="M1405.87,380.74c-6.29-1.81-9.8-3.4-6.89-9.23c3.57-7.15-0.2-8.75-6.24-7.67 c-13.23,2.36-26.55,5.25-38.16,12.09c-8.36,4.92-17.46,9.31-23.31,17.97c-2.26,3.34-2.85,5.31-0.03,8.49 c11.08,12.49,10.59,27.23,7.45,42.27c-0.48,2.3-0.44,5.95-5.2,2.89c-14.94-9.59-28.66-2.69-30.55,15.53 c-0.94,9.04-0.9,18.1,4.83,26.42c4.35,6.32,4.28,13.83,1.33,21.08c-2.94,7.24-6.21,14.29-11.28,21.03 c-5.39-7.49-2.12-15.62-2.37-22.89c-0.79-23.38-3.12-46.74-1.86-70.17c0.56-10.35,1.3-20.72,2.6-31 c1.57-12.43,9.51-20.52,20.13-25.98c10.39-5.35,20.37-11.42,31.25-15.91c10.78-4.45,19.97-11.81,29.03-19.03 c13.2-10.52,28.97-14.29,44.8-17.84c7.33-1.64,16.83,4.59,20.86,12.51c4.68,9.19,2.68,16.6-2.11,24.03 c-7.35,11.41-15.58,2.06-23.16,2.12c-3.5,0.03-7.65-4.1-11.09-0.79C1402.32,370.11,1401.81,374.96,1405.87,380.74z"></path> <path class="st8" d="M1074.94,1269.68c-16.26-2.9-31.18-8.21-47-8.76c-3.33-0.12-3.45-2.13-1.56-4.69 c12.33-16.69,23.41-34.3,36.73-50.26c12.68-15.19,25.48-30.28,38.08-45.54c2.51-3.05,5.54-5.38,8.86-7.13 c4.54-2.39,6.46,2.57,9.61,4.22c9.31,4.86,19.8,7.08,28.68,13.11c3.6,2.45,4.93,3.69,1.26,7.11 c-20.54,19.16-37.87,41.07-54.03,63.92c-5.57,7.88-10.57,16.17-15.73,24.33C1078.44,1268.18,1077.55,1270.82,1074.94,1269.68z"></path> <path class="st9" d="M1105.48,634.19c21.71-12.45,42.48-21.26,65.79-20.4c18.41,0.68,35.44,7.35,51.54,16.1 c3.07,1.67,5.75,2.38,9.55,1.19c-3.29-5.34-9.24-6.46-12.93-10.42c27.58-12.68,48.67,7.46,66.66,31.91 c-7.99,1-15.76,1.58-23.45,2.66c-11.03,1.55-22.23,1.8-33.28,3.69c-14.71,2.51-28.4-3.26-42.07-6.97 c-14.07-3.82-28.18-7.49-42.36-10.74C1132.63,638.41,1120.1,636.75,1105.48,634.19z"></path> <path class="st7" d="M1581.77,671.3c-10.15-3.33-21.79-5.05-33.47-6.89c-10.96-1.72-21.82-4.42-32.9-4.94 c-5.68-0.27-10.76-2.31-16.18-3.19c-3.03-0.49-3.13-2.7-3.31-5.11c-0.84-11.1,0.93-22.4-2.77-33.3c-0.9-2.67,0.76-4.81,3.72-3.94 c24.41,7.18,50.54,9.57,71.63,26.08c8.84,6.92,14.7,15.68,18.4,26.03C1588.04,669.29,1587.97,672.4,1581.77,671.3z"></path> <path class="st10" d="M1167.9,760.27c-6.05-4.32-12.1-8.65-18.15-12.97c0.38-0.61,0.76-1.23,1.14-1.84 c6.6,3.18,13.09,6.57,18.66,11.65C1167.34,757.29,1167.17,758.54,1167.9,760.27z"></path> <path class="st5" d="M1180.03,1431.38c-2.11-7.59-1.3-15.49-2.53-23.17c5.12,4.17,1.94,9.9,2.69,14.87 C1180.6,1425.77,1180.12,1428.6,1180.03,1431.38z"></path> <path class="st5" d="M1284.4,1452.8c-3.91,1.68-7.85,3.21-12.24,2.53C1275.25,1449.7,1280.28,1453.46,1284.4,1452.8z"></path> <path class="st3" d="M1554.02,934.42c-14.48-16.53-31.16-30.79-47.14-45.78c-25.46-23.88-52.15-46.34-78.95-68.63 c-28.88-24.02-58.95-46.57-89.31-68.69c-1.22-0.89-2.15-1.94-3.26-2.86c-7.25-6.04-7.75-8.49-1.08-14.47 c12.19-10.93,22.54-23.63,34.46-34.81c1.83-1.72,3.37-3.17,6.21-3.41c36.32-3.13,72.75-3.91,109.08-1.89 c13.85,0.77,27.9,0.85,41.62,2.79c14.56,2.05,29.16,3.7,43.69,5.83c17.39,2.55,32.98,8.88,46.92,20.67 c13.55,11.47,28.28,21.69,40.2,34.9c9.74,10.79,20.28,21.23,25.16,35.67c1.15,3.42,0.79,6.52-1,8.49 c-7.88,8.68-12.13,19.74-19.52,28.7c-3.22,3.9-6.08,8.09-9.11,12.15c-2.8,2.62-4.07,6.33-6.59,9.15 c-16.45,19.71-33.68,38.71-51.65,57.05c-5.21,5.32-10.4,10.67-15.6,16.01c-4.89,3.33-9.19,7.24-12.24,12.38l-0.08,0.17 C1560.49,941.57,1557.61,936.78,1554.02,934.42z"></path> <path class="st11" d="M1444.93,869.56c-26.99-0.08-53.92,4.1-80.87,0.93c-13.03-1.53-25.4-5.63-35.94-13.48 c-27.75-20.66-54.67-42.36-77.54-68.55c-15.94-18.25-29.42-37.96-34.49-62.33c-0.9-4.34-0.69-8.58,0.44-13.29 c2.69,7,5.09,14.13,8.12,20.98c9.62,21.76,24.04,40.17,40.38,57.22c20.86,21.78,43.6,41.35,68.06,59.03 c15.97,11.54,34.39,12.67,52.82,14.34C1405.58,866.19,1425.26,867.85,1444.93,869.56z"></path> <path class="st12" d="M1420.07,1149.23c48.74-50.98,100.34-97.85,128.33-163.23C1545.2,1029.5,1463.85,1133.34,1420.07,1149.23z"></path> <path class="st13" d="M1285.03,1046.95c14.74-5.21,29.53-10.29,44.2-15.66c24.51-8.98,47.04-22.19,70.56-33.3 c22.05-10.42,44.09-20.87,67.4-28.28c1.93-0.61,3.87-1.31,6.73-0.43c-13.91,7.24-27.81,13.06-41.02,20.29 c-21.05,11.52-42.29,22.7-63.71,33.49c-20.82,10.49-42.6,18.62-65.28,24.18C1297.69,1048.76,1291.39,1048.58,1285.03,1046.95z"></path> <path class="st14" d="M1688.83,884.91c-15.45,4.91-30.78,11.01-47.31,4.5c-2.5-0.98-5.49-1.71-4.96-4.73 c0.55-3.1,3.89-1.82,5.83-1.6C1657.79,884.87,1673.28,883.51,1688.83,884.91z"></path> <path class="st15" d="M1565.92,937.66c1.18-6.99,5.57-10.81,12.24-12.38C1575.83,931.14,1571.05,934.57,1565.92,937.66z"></path> <path class="st16" d="M1554.02,934.42c4.42-0.53,7.04,5.17,11.82,3.41C1561.7,943.37,1558.41,942.42,1554.02,934.42z"></path> <path class="st17" d="M1645.41,852.22c0.05-4.59,2.09-7.76,6.59-9.15C1652.11,847.78,1650.02,850.91,1645.41,852.22z"></path> <path class="st18" d="M636.58,1900.73c-6.51,6.64-14.87,9-23.26,11.24c-1.46,0.39-3.06,0.17-4.54,0.51 c-13.58,3.05-13.45,3.07-13.43-11c0.02-14.69,1.15-29.44-3.02-43.88c-1.62-5.62-3.57-8.91-10.52-10.2c-17.68-3.28-35.4-3-53.16-3.33 c-0.88-0.02-2.06,0.3-2.81-2.3c3.39,0,6.49,0,9.58,0c15.28-0.02,30.55-0.06,45.83-0.06c13.64-0.01,14.76,1.06,17.07,14.5 c2.29,13.27,3.75,26.56,3.43,40.07c-0.19,8.28,2.96,9.89,10.95,8.05C620.52,1902.51,628.61,1901.88,636.58,1900.73z"></path> <path class="st19" d="M1441.39,634.17c-25.35-16.06-39.18-43.93-63.04-61.52C1404.97,587.4,1424.92,609,1441.39,634.17z"></path> <path class="st20" d="M1391.54,413.66c4.81-9.64,12.52-11.03,20.45-10.72c9.62,0.38,19.19,0.64,29.69-1.09 c-3.5,5.85-8.51,6.17-13.33,6.26c-6.08,0.11-12.17-0.33-18.25-0.52C1403.67,407.38,1397.95,409.85,1391.54,413.66z"></path> <path class="st21" d="M1329.54,488.64c-5.26-3.68-8.15-6.22-5.49-11.9c1.28-2.73,7.03-5.03,2.26-9.34 c-3.02-2.73-6.66-3.19-11.85-1.76c6.67-7.53,10.79-2,15.14,0.54c4.96,2.9,1.27,5.48-0.6,7.79 C1325.43,478.39,1326.95,482.86,1329.54,488.64z"></path> <path class="st22" d="M1434.67,417.44c-8.23,6.52-16.04,2.21-22.75,4.49C1417.77,415.65,1425.24,417.46,1434.67,417.44z"></path> <path class="st23" d="M1470.8,461.52c-8.66,0.09-16.04,0.43-23.5,3.69C1451.49,457.89,1455.35,457.3,1470.8,461.52z"></path> <path class="st24" d="M1502.81,506.7c0.97,5.58,0.97,5.58-1.57,10.34C1500.65,512.89,1500.65,512.89,1502.81,506.7z"></path> <path class="st25" d="M686.09,1926.18c2.02,5.74,1.48,10.31,1.19,14.66c-0.41,6.02,2.77,7.27,7.43,5.96 c4.48-1.26,8.71-1.54,13.23,0.98c-8.36,1.66-16.7,3.48-25.09,4.93c-3.9,0.67-5.63-2.28-4.11-5.13 C682.09,1941.27,681.64,1933.87,686.09,1926.18z"></path> <path class="st26" d="M1272.83,890.8c2.74,0.46,5.18,0.91,7.64,1.28c3.38,0.5,5.42,1.22,3.64,5.65c-1.75,4.36,0.59,8.62,3.32,11.99 c3.68,4.54,7.63,8.96,12.01,12.8c11.63,10.2,18.16,22.02,13.13,38.05c-1.14,0.19-1.7-1.12-1.9-2.21 c-2.6-13.96-10.5-24.52-20.77-33.86c-7.53-6.85-15.37-13.8-12.13-26.03C1278.64,895.14,1274.06,894.02,1272.83,890.8z"></path> <path class="st27" d="M2080.46,271.27c19-8.36,22.91-24.15,21.69-42.42c-0.32-4.78,0.84-7.11,6.26-6.31 c4.25,0.63,8.64,0.3,12.97,0.42c7.46,0.2,13.2-2.79,17.96-10.03c-12.04-2.54-21.31-9.72-31.56-15c-6.17-3.18-11.61-2.61-16.98,1.55 c-4.59,3.56-9.34,6.86-15.44,8.29c0.09-0.9-0.01-1.44,0.19-1.61c12.45-10.18,12.45-10.17-0.96-18.73c-1.71-1.09-3.34-2.29-5.15-3.54 c2.17-1.03,3.82,0.47,5.64,0.68c9.14,1.02,16.59,10.2,27.35,5.02c2.3-1.11,7.19,1.96,10.33,3.98c11.21,7.17,22.85,13.23,36.72,15.69 c-7.08,12.41-15.27,21.23-30.71,19.91c-10.05-0.86-10.09-0.25-10.45,10.24c-0.04,1.27-0.17,2.54-0.24,3.81 C2107.13,261.61,2099.82,269.35,2080.46,271.27z"></path> <path class="st28" d="M2121.38,187.09c-5.25-7.06-10.35-13.17-16.76-18.64C2114.31,169.09,2119.57,174.85,2121.38,187.09z"></path> <path class="st29" d="M2133.23,171.82c10.38,6.82,12.05,9.74,11.03,18.1C2140.77,184.2,2137.56,178.93,2133.23,171.82z"></path> <path class="st30" d="M1615.04,739.24c16.8,14.37,30.96,27.86,41.06,45.33c3.85,6.66,3.65,11.37-0.32,17.82 c-8.21,13.35-7.7,13.55-18.03,2.56c-12.99-13.81-30.31-18.73-47.9-23.17c-20.79-5.25-42.14-2.16-63.14-4.5 c-19.2-2.14-38.65-2.22-57.39-7.64c-4.37-1.26-8.89-2.38-12.89-4.44c-6.71-3.45-13.11-8.03-12.18-16.72 c0.99-9.21,7.2-15.14,15.58-18.02c17.32-5.95,35.27-5.16,52.96-2.63c22.32,3.2,41.05,13.97,56.62,30.23 c1.78,1.86,3.47,3.75,6.28,3.95c11.95,0.83,23.9,1.63,35.84,2.57c3.64,0.28,3.48-2.1,3.49-4.42 C1615.06,753.89,1615.04,747.61,1615.04,739.24z"></path> <path class="st31" d="M1456.31,809.61c30.89,3.88,61.88,1.71,92.34,6.04c17.51,2.49,35.22,4.12,51.06,13.6 c9.54,5.71,7.47,17.12,0.44,22.89c-7.03,5.77-15.16,7.74-24.03,7.74c-10.24,0-20.3-0.88-30.13-4.08c-3.19-1.04-5.27-2.4-6.35-5.7 c-5.71-17.58-22.01-14.64-30.49-5.3c-3.6,3.97-5.03,2.95-8.09,0.49C1486.21,833.33,1471.24,821.49,1456.31,809.61z"></path> <path class="st32" d="M1410.96,710.21c-14.81,12.98-24.88,26.82-23.82,46.93c-8.05-4.32-13.8-9.52-19.78-14.43 c-2.98-2.45-1.29-4.72,0.31-6.49c7.14-7.89,14.12-16,21.88-23.24C1395,707.93,1402.24,709.79,1410.96,710.21z"></path> <path class="st33" d="M1585.33,892.26c-3.47,7.9-10.15,11.66-14.73,17.2c-1.07,1.3-2.78,1.18-4.01-0.16 c-3.94-4.27-7.9-8.52-11.68-12.93c-0.69-0.81-1.14-2.64-0.7-3.43c0.84-1.5,2.74-0.97,4.14-0.65 C1567.05,894.26,1575.76,895.23,1585.33,892.26z"></path> <path class="st34" d="M1563.98,718.02c9.49-1.05,16.22,2.94,23.51,3.02c1.93,0.02,2.67,2.09,2.49,4.09c-0.37,4.19-0.73,8.38-1.22,14 C1581.84,730.27,1574.33,724.12,1563.98,718.02z"></path> <path class="st35" d="M2344.28,1777.03c241.46,0,482.91,0.03,724.36-0.14c7.42-0.01,12.78,1.97,18.19,7.2 c125.12,121,250.39,241.86,375.81,362.56c5.34,5.14,5.73,7.86,0.73,13.69c-290.31,337.91-580.44,675.97-870.59,1014.02 c-80.82,94.17-161.68,188.3-242.31,282.63c-5.17,6.05-7.5,7.36-13.45,0.41c-197.79-230.83-395.83-461.45-593.8-692.12 c-173.39-202.03-346.72-404.1-520.23-606.02c-4.1-4.77-4.16-7.09,0.41-11.49c126.14-121.37,252.16-242.86,378.05-364.48 c4.9-4.73,9.79-6.39,16.5-6.38C1860.06,1777.06,2102.17,1777.03,2344.28,1777.03z"></path> <path class="st36" d="M2343.96,1814.07c236.53,0,473.06,0.04,709.59-0.15c8.11-0.01,13.94,2.09,19.9,7.87 c87.92,85.31,176.08,170.36,264.22,255.43c25.05,24.17,50.12,48.32,75.41,72.24c4.8,4.54,5.21,7.38,0.63,12.69 c-62.57,72.55-124.83,145.36-187.25,218.04c-50.03,58.25-100.23,116.34-150.23,174.61c-61.54,71.7-122.91,143.55-184.44,215.26 c-57.48,66.98-115.13,133.81-172.61,200.79c-65.38,76.19-130.61,152.52-195.99,228.71c-49.57,57.77-99.27,115.42-148.92,173.12 c-8.77,10.2-17.73,20.24-26.24,30.66c-3.18,3.89-4.74,4.97-8.64,0.41c-43.05-50.41-86.36-100.58-129.55-150.87 c-41.47-48.29-82.87-96.65-124.32-144.96c-45.51-53.05-91.02-106.1-136.55-159.14c-42.11-49.05-84.25-98.06-126.36-147.11 c-49.16-57.27-98.29-114.56-147.44-171.84c-42.1-49.06-84.22-98.09-126.31-147.15c-45.51-53.05-90.99-106.13-136.51-159.17 c-41.67-48.55-83.38-97.07-125.07-145.61c-2.35-2.74-4.72-5.46-7-8.27c-11.94-14.69-11.87-14.64,2.14-28.13 c72.38-69.72,144.73-139.47,217.08-209.21c38.54-37.15,77.17-74.21,115.48-111.61c5.19-5.07,10.38-6.74,17.4-6.74 C1869.59,1814.1,2106.77,1814.07,2343.96,1814.07z"></path> <path class="st35" d="M3082.76,1943.6c3.67,3.43,5.63,5.17,7.49,7.01c69.35,68.6,138.62,137.29,208.15,205.7 c5.7,5.61,5.69,8.51,0.47,14.72c-62.32,74.04-124.22,148.44-186.28,222.7c-26.09,31.22-52.46,62.21-78.32,93.62 c-5.04,6.13-6.35,3.66-8.92-1.47c-10.56-21.1-21.28-42.08-36.03-60.76c-30.04-38.06-67.79-66.4-110.48-88.58 c-57.75-30.01-119.61-47.53-183.25-59.22c-55.15-10.13-110.81-15.62-166.85-18.37c-50.58-2.47-101.17-2.7-151.67-0.95 c-46.64,1.61-93.27,2.35-139.86,1.2c-78.41-1.93-156.28-9.02-231.52-33.3c-28.51-9.2-55.8-21.2-79.55-39.89 c-51.01-40.15-58.82-85.41-34.07-142.03c18.12-41.46,51.95-67.6,90.74-87.99c44.16-23.21,91.74-36.18,140.5-45.25 c71.87-13.37,144.5-18.03,217.41-15.39c85.04,3.08,168.1,16.83,245.4,54.92c63.74,31.41,114.39,76.2,142.58,143.11 c8.54,20.28,14.73,41.27,17.05,63.23c0.9,8.45,3.37,12.43,13.74,12.38c103.48-0.55,206.96-0.31,310.44-0.36 c14.43-0.01,12.79,1.8,12.81-12.34c0.06-66.67,0.03-133.33,0.03-200C3082.76,1952.78,3082.76,1949.26,3082.76,1943.6z"></path> <path class="st35" d="M1661.92,2492.9c20.41,3.52,38.12,6.35,55.73,9.66c48.53,9.14,97.29,16.81,146.27,23.01 c40.9,5.18,81.77,10.77,122.76,15.14c39.4,4.2,78.93,7.34,118.44,10.44c51.3,4.02,102.63,7.82,153.98,11.2 c39.27,2.59,78.6,4.17,117.88,6.6c46.47,2.88,92.89,6.41,139.36,9.24c35.66,2.17,71.18,5.75,106.56,10.46 c47.68,6.33,95.15,13.96,139.48,33.98c37.03,16.72,51.2,37.29,48.16,71.33c-1.84,20.54-11.68,38.08-25.52,53.08 c-24.79,26.88-56.59,41.99-91.02,52.01c-38.84,11.3-78.76,15.85-119.05,18.18c-75.48,4.35-151,1.46-226.5,1.42 c-0.33,0-0.66,0-0.99-0.01c-12.13-0.47-25.05,1.48-36.18-2.1c-11.31-3.64-13.47-18.24-20.96-27.16 c-23.32-27.77-52.04-47.98-85.4-61.34c-79.31-31.77-159.58-35.7-240.43-5.85c-23,8.49-43.56,21.29-60.77,38.97 c-5.9,6.06-9.6,7.77-16.46-0.39c-73.41-87.39-147.36-174.33-221.13-261.41C1665.15,2498.16,1664.44,2496.75,1661.92,2492.9z"></path> <path class="st35" d="M2644.32,2932.65c-22.29,25.96-42.77,49.81-63.25,73.66c-46.59,54.25-93.16,108.52-139.77,162.75 c-31.22,36.32-62.56,72.55-93.64,108.98c-3.38,3.96-4.86,3.58-8.02-0.11c-35.21-41.1-70.62-82.03-105.91-123.07 c-38.28-44.52-76.48-89.1-114.72-133.64c-28.6-33.32-57.22-66.62-87.31-101.65c33.47,7.6,64.74,14.95,96.13,21.79 c48.58,10.58,97.55,18.65,147.04,23.83c41.51,4.35,83.06,6.41,124.76,5.58c68.37-1.35,135.48-11.93,201.78-28.21 C2614.7,2939.3,2628.07,2936.39,2644.32,2932.65z"></path> <path class="st35" d="M1543.77,2354.19c-11.65-13.52-21.7-25.01-31.56-36.66c-41.93-49.56-83.7-99.25-125.85-148.61 c-4.19-4.91-3.29-7.05,0.7-10.92c90.02-87.26,179.95-174.62,269.82-262.03c3.25-3.16,6.5-4.84,11.21-4.83 c58.11,0.14,116.21,0.09,174.32,0.12c0.92,0,1.84,0.25,6.31,0.9c-78.17,57.57-144.49,123.33-196.7,202.58 C1600.01,2173.69,1564.57,2259.62,1543.77,2354.19z"></path> <path class="st35" d="M2663.22,1891.15c62.27,0,124.54,0.02,186.81-0.05c3.87,0,5.68,0.92,6.28,5.31 c6.53,47.58-11.23,85.67-45.19,117.72c-4.86,4.59-6.02,0.22-7.8-2.39c-11.87-17.33-25.31-33.3-39.58-48.74 c-24.94-26.99-56.43-44.37-87.76-62.16c-4.48-2.54-8.88-5.2-13.32-7.81C2662.85,1892.41,2663.03,1891.78,2663.22,1891.15z"></path> <path class="st37" d="M3124.73,2029.67c42.36,43.97,84.71,87.94,127.12,131.87c2.5,2.59,3.88,4.23,0.82,7.88 c-71.96,85.68-143.77,171.49-215.61,257.27c-0.18,0.22-0.54,0.29-1.38,0.72c-9.02-12.69-17.87-25.64-28.23-37.45 c-42.21-48.13-94.94-80.89-153.52-105.04c-64.51-26.6-131.97-41.73-200.89-51.24c-84.45-11.66-169.33-15.03-254.42-12.98 c-49.24,1.19-98.44,4.23-147.71,2.73c-73.16-2.23-146.05-6.98-217-26.95c-30.04-8.46-59.2-19.21-84.31-38.35 c-37.64-28.7-42.59-56.16-24.3-99.27c12.88-30.36,37.74-49.76,65.5-65.68c40.19-23.06,84.11-35.74,129.12-44.8 c63.58-12.8,128.03-17.41,192.76-17.08c78.11,0.4,154.97,9.7,228.24,38.72c52.69,20.86,99.25,50.43,132.44,97.84 c24.92,35.61,37.18,75.42,38.76,118.63c0.66,18.06,0.39,18.07,18.68,18.07c125.8,0,251.6-0.1,377.4,0.2 c8.91,0.02,11.42-2.09,11.33-11.21c-0.48-49.9-0.23-99.82-0.23-149.73c0-3.48,0-6.97,0-10.45 C3121.12,2032.13,3122.92,2030.9,3124.73,2029.67z"></path> <path class="st37" d="M1756.62,2546.73c20.29,3.12,40.56,6.38,60.88,9.32c43.46,6.28,86.95,12.3,130.64,16.75 c43.06,4.39,86.09,9.09,129.2,12.94c38.23,3.41,76.54,6.08,114.84,8.64c50.1,3.34,100.22,6.31,150.34,9.33 c37.35,2.25,74.73,4.01,112.06,6.57c82.71,5.65,165.61,10.05,246.64,29.62c19.71,4.76,38.95,11.23,56.72,21.37 c16.94,9.67,20.68,20.3,14.01,38.59c-6.76,18.54-20.34,31.06-36.29,41.36c-28.9,18.67-61.45,27.25-94.89,32.44 c-81.5,12.66-163.62,10.38-245.67,9.09c-19.7-0.31-39.4-0.75-59.1-1.07c-3.61-0.06-6.57-0.04-9.23-3.76 c-40.5-56.62-98.14-86.38-163.95-101.83c-71.13-16.7-141.73-14.61-210.69,11.64c-17.18,6.54-33.37,15.12-48.34,25.85 c-3.15,2.26-5.24,3.99-8.76-0.17c-46.26-54.92-92.72-109.68-139.13-164.47C1756.15,2548.2,1756.39,2547.46,1756.62,2546.73z"></path> <path class="st37" d="M2131.49,2979.51c138.04,28.26,274.34,39.24,414.02,12.18c-16.8,19.64-32.02,37.49-47.3,55.28 c-48.93,56.97-98,113.83-146.68,171.02c-6.05,7.11-9,8.13-15.64,0.33c-66.36-77.89-133.13-155.42-199.79-233.06 C2135.09,2984.07,2134.15,2982.82,2131.49,2979.51z"></path> <path class="st37" d="M1746.81,1928.24c-105.01,97.6-177.93,212.67-220.39,347.87c-7.34-5.28-11.9-12.51-17.29-18.82 c-23.67-27.69-46.72-55.92-70.82-83.24c-6.52-7.39-5.1-10.64,1.2-16.71c65.03-62.67,129.74-125.66,194.53-188.57 c12.25-11.9,24.43-23.87,36.74-35.71c2.27-2.19,4.18-4.91,8.11-4.89C1700.82,1928.31,1722.73,1928.24,1746.81,1928.24z"></path> <path class="st38" d="M2809.59,1958.69c-9.58-10.04-18.57-19.47-29.07-30.48c13.24,0,25.06-0.1,36.88,0.05 c3.95,0.05,2.33,2.87,1.95,4.96C2817.75,1941.98,2814.8,1950.21,2809.59,1958.69z"></path> </svg> 